<?xml version="1.0" standalone="no"?>
<!DOCTYPE svg PUBLIC "-//W3C//DTD SVG 20010904//EN"
 "http://www.w3.org/TR/2001/REC-SVG-20010904/DTD/svg10.dtd">
<svg version="1.0" xmlns="http://www.w3.org/2000/svg"
 width="1280.000000pt" height="1112.000000pt" viewBox="0 0 1280.000000 1112.000000"
 preserveAspectRatio="xMidYMid meet">
<g transform="translate(0.000000,1112.000000) scale(0.100000,-0.100000)"
fill="#000000" stroke="none">
<path d="M6840 11110 c-19 -4 -100 -13 -180 -20 -171 -13 -304 -31 -495 -65
-290 -53 -612 -132 -597 -147 6 -6 32 -3 68 6 594 154 1692 -248 2270 -829
224 -227 355 -465 384 -699 18 -146 -6 -257 -91 -431 l-44 -89 0 -121 c0 -134
20 -213 75 -304 17 -26 30 -55 30 -64 0 -15 -2092 -1940 -2115 -1945 -12 -3
-1601 1366 -1617 1392 -7 12 12 90 261 1099 89 357 161 655 161 662 0 7 -224
146 -497 308 -843 499 -1613 960 -1748 1045 -94 60 -132 79 -144 72 -23 -12
-671 -610 -671 -619 0 -4 118 -115 263 -247 933 -854 1122 -1030 1125 -1046 2
-10 -56 -210 -129 -444 -108 -348 -136 -428 -153 -435 -12 -5 -221 -61 -466
-125 -245 -63 -452 -117 -461 -120 -11 -3 -248 208 -715 636 -384 352 -704
639 -711 638 -24 -6 -623 -562 -623 -579 0 -9 181 -250 403 -535 388 -499 653
-845 1027 -1341 96 -128 181 -233 189 -233 12 0 530 89 1571 271 63 11 162 28
219 38 l104 18 113 -107 c300 -285 1074 -1046 1074 -1056 0 -6 -102 -101 -227
-211 -126 -110 -404 -355 -619 -544 -559 -492 -1224 -1077 -1704 -1499 -228
-201 -712 -627 -1076 -947 -363 -319 -679 -603 -702 -629 -133 -153 -147 -331
-39 -498 66 -104 78 -115 846 -821 90 -82 186 -167 214 -188 241 -182 547
-228 759 -115 70 37 157 117 669 613 221 215 484 468 583 564 100 96 366 353
591 571 226 218 489 472 585 565 96 93 360 347 585 565 226 218 563 543 749
724 186 180 345 326 352 324 11 -3 839 -806 1719 -1668 132 -129 425 -415 650
-635 226 -220 672 -656 992 -968 320 -313 615 -596 656 -630 84 -70 202 -143
293 -181 56 -23 134 -44 285 -76 133 -29 385 22 569 115 248 125 453 371 522
627 33 119 32 302 -1 408 -45 146 -123 270 -238 381 -53 51 -3767 3274 -4351
3776 -136 117 -248 218 -250 225 -1 7 64 74 145 148 82 75 499 457 928 850
429 392 832 762 896 822 65 59 123 108 130 108 7 0 44 -22 83 -49 92 -63 173
-103 266 -132 106 -33 318 -33 473 -1 127 26 180 27 279 7 143 -30 263 -101
412 -245 107 -103 366 -393 366 -410 0 -5 -44 -54 -98 -108 -108 -106 -137
-155 -155 -259 -26 -150 28 -300 152 -423 127 -126 257 -180 435 -180 107 0
184 20 262 68 24 16 243 210 486 433 243 222 451 412 463 421 66 51 145 222
145 311 0 65 -43 193 -89 264 -73 113 -204 210 -336 249 -124 37 -290 22 -409
-38 l-39 -20 -44 44 c-63 61 -197 228 -259 323 -28 44 -99 175 -157 291 -147
294 -223 413 -396 614 -143 166 -227 250 -656 650 -291 272 -686 642 -864 810
-394 370 -591 515 -926 680 -380 187 -714 279 -1215 331 -137 15 -521 21 -570
9z m4320 -9800 c36 -11 93 -37 126 -58 238 -154 269 -466 64 -655 -72 -67
-140 -101 -243 -124 -98 -21 -203 -9 -300 35 -133 61 -182 140 -194 312 -13
214 97 439 239 486 106 35 197 36 308 4z"/>
</g>
</svg>
