<?xml version="1.0" encoding="UTF-8" standalone="no"?>
<!DOCTYPE svg PUBLIC "-//W3C//DTD SVG 20010904//EN"
              "http://www.w3.org/TR/2001/REC-SVG-20010904/DTD/svg10.dtd">

<svg xmlns="http://www.w3.org/2000/svg"
     width="17.7639in" height="14.2083in"
     viewBox="0 0 1279 1023">
  <path id="Selection #1"
        fill="#5c5e5c" stroke="black" stroke-width="1"
        d="M 911.03,114.00
           C 911.03,114.00 921.48,99.42 921.48,99.42
             922.20,96.72 917.31,89.55 915.85,87.00
             911.35,79.12 903.21,67.08 903.18,58.00
             903.14,46.73 909.71,40.21 918.00,33.88
             931.92,23.26 945.19,15.25 961.00,7.78
             967.51,4.71 976.87,0.33 984.00,0.04
             1002.68,-0.72 1007.53,12.14 1015.58,26.00
             1017.23,28.85 1021.96,38.39 1024.53,39.43
             1026.42,40.46 1029.94,39.54 1032.00,39.43
             1032.00,39.43 1049.00,38.00 1049.00,38.00
             1061.74,37.98 1074.55,37.86 1087.00,41.00
             1088.75,35.46 1092.39,30.08 1095.28,25.00
             1098.88,18.67 1103.33,9.28 1109.04,4.93
             1124.07,-6.52 1142.76,4.64 1157.00,11.75
             1157.00,11.75 1171.00,19.20 1171.00,19.20
             1185.08,27.70 1208.41,41.03 1206.81,60.00
             1206.26,66.55 1202.06,73.38 1198.85,79.00
             1198.85,79.00 1187.00,99.00 1187.00,99.00
             1192.11,103.51 1195.90,109.36 1199.67,115.00
             1205.84,124.26 1216.30,142.18 1218.00,153.00
             1218.00,153.00 1248.00,153.00 1248.00,153.00
             1252.33,153.02 1254.79,153.15 1259.00,154.44
             1272.07,158.45 1275.43,167.80 1277.13,180.00
             1279.39,196.22 1279.03,205.93 1279.00,222.00
             1278.99,231.60 1277.19,251.13 1271.89,258.99
             1263.96,270.75 1249.49,270.00 1237.00,270.00
             1237.00,270.00 1218.00,270.00 1218.00,270.00
             1216.10,280.51 1205.69,298.94 1199.65,308.00
             1197.50,311.22 1189.32,321.11 1188.97,324.00
             1188.61,327.08 1193.88,335.04 1195.58,338.00
             1203.26,351.40 1212.69,363.74 1202.45,378.96
             1198.77,384.45 1190.48,390.43 1185.00,394.28
             1172.32,403.18 1160.09,409.95 1146.00,416.30
             1139.82,419.09 1132.85,422.49 1126.00,422.91
             1108.60,423.97 1102.70,410.69 1095.42,398.00
             1092.59,393.07 1088.67,387.28 1087.00,382.00
             1065.35,385.89 1044.65,385.89 1023.00,382.00
             1021.31,387.79 1017.68,392.79 1014.72,398.00
             1011.01,404.52 1006.83,413.28 1000.91,417.83
             988.31,427.52 975.60,421.43 963.00,415.86
             954.31,412.02 947.16,408.26 939.00,403.40
             930.67,398.43 912.92,386.53 907.65,379.00
             904.90,375.07 902.91,367.79 903.33,363.00
             904.08,354.37 911.90,342.70 916.28,335.00
             918.35,331.35 922.55,326.31 920.58,322.00
             920.58,322.00 903.86,297.00 903.86,297.00
             903.86,297.00 895.31,280.00 895.31,280.00
             895.31,280.00 891.92,272.31 891.92,272.31
             889.75,269.52 886.17,270.01 883.00,270.00
             868.96,269.97 848.25,272.59 838.79,259.96
             833.06,252.31 832.58,241.20 831.91,232.00
             830.69,215.31 830.36,198.63 832.73,182.00
             834.04,172.83 835.27,164.75 843.04,158.53
             846.49,155.77 850.68,154.24 855.00,153.23
             855.00,153.23 892.00,153.23 892.00,153.23
             893.94,142.30 904.78,123.15 911.03,114.00 Z
           M 547.00,884.00
           C 547.00,884.00 547.00,902.00 547.00,902.00
             546.97,918.86 539.50,934.13 525.00,943.29
             512.55,951.15 489.75,952.69 475.00,954.17
             475.00,954.17 452.00,956.00 452.00,956.00
             452.00,956.00 412.00,956.00 412.00,956.00
             412.00,956.00 378.00,953.15 378.00,953.15
             355.58,950.47 336.18,948.93 322.70,928.00
             320.00,923.80 318.81,920.72 317.35,916.00
             315.64,910.49 315.01,903.76 315.00,898.00
             315.00,898.00 315.00,844.00 315.00,844.00
             315.00,841.79 315.22,838.29 313.98,836.42
             312.52,834.22 308.42,833.13 306.00,832.19
             306.00,832.19 289.00,825.14 289.00,825.14
             271.50,817.35 250.75,805.82 235.00,794.98
             235.00,794.98 209.00,775.43 209.00,775.43
             207.64,774.58 206.67,774.04 205.00,774.13
             202.27,774.27 188.35,782.81 185.00,784.72
             185.00,784.72 162.00,797.85 162.00,797.85
             148.41,805.61 139.34,812.16 123.00,812.00
             97.66,811.74 87.12,795.89 72.80,778.00
             52.07,752.08 24.78,715.27 11.58,685.00
             4.48,668.73 -0.21,662.43 0.00,644.00
             0.17,629.45 8.20,615.38 20.00,607.04
             25.77,602.97 34.50,599.00 41.00,595.75
             41.00,595.75 66.00,583.25 66.00,583.25
             66.00,583.25 81.00,575.75 81.00,575.75
             82.87,574.82 87.10,572.91 88.31,571.37
             90.54,568.53 87.49,556.92 87.05,553.00
             85.15,536.07 83.80,519.05 84.00,502.00
             84.00,502.00 85.00,489.00 85.00,489.00
             85.00,489.00 87.28,462.00 87.28,462.00
             87.76,458.33 90.17,448.22 88.23,445.39
             86.93,443.48 83.09,441.80 81.00,440.75
             81.00,440.75 63.00,431.75 63.00,431.75
             50.46,425.48 22.27,412.69 13.29,403.71
             7.69,398.11 3.98,391.55 1.72,384.00
             -0.27,377.37 -0.03,374.73 0.00,368.00
             0.07,353.89 8.50,337.51 14.75,325.00
             31.02,292.47 53.13,261.99 76.25,234.00
             88.20,219.53 95.42,208.94 115.00,205.26
             117.49,204.79 121.55,204.08 124.00,204.08
             142.49,204.08 168.70,222.54 185.00,231.85
             188.39,233.79 202.19,242.31 205.00,242.45
             206.62,242.53 207.65,241.99 209.00,241.18
             209.00,241.18 233.00,223.02 233.00,223.02
             249.83,211.42 270.25,199.58 289.00,191.42
             289.00,191.42 306.00,184.42 306.00,184.42
             308.75,183.37 312.37,182.45 313.98,179.78
             315.20,177.74 315.00,174.34 315.00,172.00
             315.00,172.00 315.00,118.00 315.00,118.00
             315.03,97.23 323.47,79.46 343.00,70.32
             352.09,66.07 364.99,65.02 375.00,63.72
             375.00,63.72 406.00,61.00 406.00,61.00
             406.00,61.00 423.00,60.00 423.00,60.00
             423.00,60.00 440.00,60.00 440.00,60.00
             440.00,60.00 453.00,61.00 453.00,61.00
             466.54,61.15 483.61,62.73 497.00,64.92
             508.14,66.74 516.15,67.55 526.00,74.10
             538.38,82.34 546.82,97.08 547.00,112.00
             547.00,112.00 547.00,130.00 547.00,130.00
             547.00,130.00 547.00,174.00 547.00,174.00
             547.04,175.82 546.98,178.01 548.02,179.59
             549.36,181.61 552.80,182.72 555.00,183.60
             555.00,183.60 572.00,190.70 572.00,190.70
             589.38,198.53 609.38,208.86 625.00,219.72
             625.00,219.72 644.00,233.42 644.00,233.42
             646.16,235.11 653.15,241.08 655.00,241.84
             658.13,243.13 660.34,241.51 663.00,240.01
             663.00,240.01 678.00,231.42 678.00,231.42
             694.15,222.16 718.86,204.74 737.00,204.04
             762.12,203.06 773.81,218.33 788.00,236.00
             788.00,236.00 815.42,272.00 815.42,272.00
             815.42,272.00 830.19,294.00 830.19,294.00
             830.19,294.00 840.28,311.00 840.28,311.00
             840.28,311.00 854.28,339.00 854.28,339.00
             854.28,339.00 860.84,356.00 860.84,356.00
             865.31,372.52 862.29,389.98 850.70,402.96
             842.64,411.98 820.56,421.47 809.00,427.25
             800.83,431.33 780.62,442.30 773.00,444.00
             773.00,444.00 776.83,476.00 776.83,476.00
             776.83,476.00 778.00,523.00 778.00,523.00
             778.00,523.00 774.87,557.00 774.87,557.00
             774.41,560.26 772.40,567.92 774.04,570.61
             775.27,572.64 778.90,574.19 781.00,575.25
             781.00,575.25 798.00,583.75 798.00,583.75
             798.00,583.75 824.00,596.75 824.00,596.75
             843.12,606.31 858.23,613.64 862.69,637.00
             866.27,655.74 858.45,671.59 850.25,688.00
             832.89,722.72 809.88,754.24 785.08,784.00
             769.59,802.59 761.56,812.30 736.00,812.00
             719.11,811.80 693.22,793.75 678.00,785.00
             678.00,785.00 663.00,776.40 663.00,776.40
             661.36,775.42 658.52,773.28 656.58,773.62
             654.78,773.95 649.70,778.45 648.00,779.79
             648.00,779.79 628.00,794.66 628.00,794.66
             610.50,806.57 591.46,817.49 572.00,825.85
             565.24,828.75 553.93,833.91 547.00,835.00
             547.00,835.00 547.00,884.00 547.00,884.00 Z
           M 1013.00,153.04
           C 983.75,173.74 976.46,211.12 990.15,243.00
             992.79,249.14 997.94,258.78 1002.52,263.54
             1007.68,268.91 1018.99,274.56 1026.00,277.40
             1033.58,280.46 1043.82,282.90 1052.00,283.00
             1063.22,283.13 1071.43,282.29 1082.00,277.99
             1121.57,261.86 1136.79,218.27 1120.28,180.00
             1117.61,173.81 1112.51,163.87 1107.82,159.18
             1098.06,149.43 1074.91,140.17 1061.00,140.15
             1061.00,140.15 1044.00,140.15 1044.00,140.15
             1032.27,142.49 1022.80,146.11 1013.00,153.04 Z
           M 402.00,367.00
           C 382.73,370.91 366.05,377.57 349.00,387.28
             340.72,392.00 329.50,398.72 323.46,406.00
             315.98,415.03 306.93,431.17 302.14,442.00
             293.63,461.25 289.38,476.99 287.91,498.00
             287.91,498.00 287.02,507.00 287.02,507.00
             287.02,507.00 287.91,518.00 287.91,518.00
             290.35,552.93 305.14,587.70 331.00,611.91
             345.07,625.08 360.12,634.87 378.00,642.00
             391.48,647.38 409.46,651.83 424.00,652.00
             457.07,652.38 478.45,647.26 508.00,632.24
             515.14,628.62 532.23,618.20 537.33,612.70
             545.33,604.10 552.95,589.59 558.25,579.00
             590.50,514.48 576.73,437.29 518.00,392.90
             504.05,382.35 489.60,375.53 473.00,370.34
             459.58,366.15 437.96,362.99 424.00,364.28
             424.00,364.28 402.00,367.00 402.00,367.00 Z
           M 855.00,866.77
           C 850.62,865.75 846.54,864.24 843.02,861.47
             835.15,855.29 834.04,847.19 832.73,838.00
             830.30,820.96 830.82,804.08 831.98,787.00
             832.54,778.64 833.71,766.82 838.79,760.04
             848.25,747.41 868.96,750.03 883.00,750.00
             886.17,749.99 889.75,750.48 891.92,747.69
             891.92,747.69 903.31,724.00 903.31,724.00
             906.21,718.64 911.16,710.95 914.74,706.00
             914.74,706.00 920.01,699.00 920.01,699.00
             923.32,693.39 916.28,684.99 913.42,680.00
             905.45,666.09 896.89,652.33 910.10,638.01
             920.50,626.75 947.55,610.86 962.00,604.58
             968.27,601.85 977.21,597.51 984.00,597.09
             1001.89,595.99 1007.81,609.88 1015.28,623.00
             1018.12,627.98 1021.38,632.45 1023.00,638.00
             1044.65,634.11 1065.35,634.11 1087.00,638.00
             1088.67,632.72 1092.59,626.93 1095.42,622.00
             1099.22,615.37 1103.02,607.14 1109.00,602.39
             1113.71,598.66 1120.01,596.73 1126.00,597.09
             1137.34,597.79 1160.93,610.53 1171.00,616.60
             1184.96,625.02 1208.38,638.16 1206.81,657.00
             1206.09,665.73 1198.82,676.32 1194.42,684.00
             1192.87,686.71 1188.63,693.09 1188.97,696.00
             1189.32,698.89 1197.50,708.78 1199.65,712.00
             1205.69,721.06 1216.10,739.49 1218.00,750.00
             1218.00,750.00 1237.00,750.00 1237.00,750.00
             1249.46,750.00 1264.21,749.13 1272.04,761.00
             1277.34,769.05 1278.98,788.24 1279.00,798.00
             1279.00,798.00 1278.17,830.00 1278.17,830.00
             1276.63,845.36 1276.02,860.90 1258.00,865.84
             1254.51,866.80 1252.58,866.95 1249.00,867.00
             1249.00,867.00 1218.00,867.00 1218.00,867.00
             1215.49,882.99 1197.25,909.37 1187.00,922.00
             1190.87,925.86 1193.28,931.27 1196.00,936.00
             1202.49,947.29 1209.71,956.45 1205.56,970.00
             1202.76,979.12 1195.39,983.99 1188.00,989.29
             1173.40,999.76 1166.88,1003.33 1151.00,1011.25
             1144.14,1014.67 1133.61,1019.65 1126.00,1019.96
             1107.99,1020.69 1103.53,1009.45 1095.85,996.00
             1092.87,990.77 1088.78,984.64 1087.00,979.00
             1074.79,982.08 1061.52,982.02 1049.00,982.00
             1049.00,982.00 1032.00,980.56 1032.00,980.56
             1029.95,980.46 1026.56,979.52 1024.68,980.56
             1021.84,981.71 1017.70,990.05 1016.00,993.00
             1007.84,1007.19 1003.25,1020.74 984.00,1019.96
             976.87,1019.67 967.51,1015.29 961.00,1012.22
             944.32,1004.34 932.67,997.33 918.00,986.12
             909.80,979.85 903.34,973.03 903.34,962.00
             903.34,952.53 911.20,941.14 915.85,933.00
             917.06,930.87 921.74,923.60 921.62,921.58
             921.48,919.22 912.32,907.94 910.35,905.00
             904.31,895.94 893.90,877.51 892.00,866.77
             892.00,866.77 855.00,866.77 855.00,866.77 Z
           M 1017.00,747.46
           C 997.07,759.60 986.26,779.30 983.84,802.00
             983.50,805.10 982.95,806.72 983.18,810.00
             983.92,820.43 986.02,830.38 990.15,840.00
             992.79,846.14 997.94,855.78 1002.52,860.54
             1007.68,865.91 1018.99,871.56 1026.00,874.40
             1033.58,877.46 1043.82,879.90 1052.00,880.00
             1063.22,880.13 1071.43,879.29 1082.00,874.99
             1121.57,858.86 1136.79,815.27 1120.28,777.00
             1117.33,770.18 1112.23,760.37 1106.83,755.32
             1091.22,740.75 1065.73,735.32 1045.00,737.29
             1034.70,738.99 1025.97,742.00 1017.00,747.46 Z" />
</svg>
